<mxfile host="Electron" agent="Mozilla/5.0 (Windows NT 10.0; Win64; x64) AppleWebKit/537.36 (KHTML, like Gecko) draw.io/24.7.8 Chrome/128.0.6613.36 Electron/32.0.1 Safari/537.36" version="24.7.8">
  <diagram id="C5RBs43oDa-KdzZeNtuy" name="Page-1">
    <mxGraphModel dx="1368" dy="1487" grid="1" gridSize="10" guides="1" tooltips="1" connect="1" arrows="1" fold="1" page="1" pageScale="1" pageWidth="827" pageHeight="1169" math="0" shadow="0">
      <root>
        <mxCell id="WIyWlLk6GJQsqaUBKTNV-0" />
        <mxCell id="WIyWlLk6GJQsqaUBKTNV-1" parent="WIyWlLk6GJQsqaUBKTNV-0" />
        <mxCell id="WIyWlLk6GJQsqaUBKTNV-3" value="START" style="rounded=1;whiteSpace=wrap;html=1;fontSize=12;glass=0;strokeWidth=1;shadow=0;" parent="WIyWlLk6GJQsqaUBKTNV-1" vertex="1">
          <mxGeometry x="330" y="-80" width="120" height="40" as="geometry" />
        </mxCell>
        <mxCell id="WIyWlLk6GJQsqaUBKTNV-6" value="Urządzenie zablokowane?" style="rhombus;whiteSpace=wrap;html=1;shadow=0;fontFamily=Helvetica;fontSize=12;align=center;strokeWidth=1;spacing=6;spacingTop=-4;" parent="WIyWlLk6GJQsqaUBKTNV-1" vertex="1">
          <mxGeometry x="340" y="110" width="100" height="80" as="geometry" />
        </mxCell>
        <mxCell id="nSXJ9mcBRlVtJKenyXMZ-1" value="Pokrętło / przycisk?" style="rhombus;whiteSpace=wrap;html=1;shadow=0;fontFamily=Helvetica;fontSize=12;align=center;strokeWidth=1;spacing=6;spacingTop=-4;" parent="WIyWlLk6GJQsqaUBKTNV-1" vertex="1">
          <mxGeometry x="180" y="110" width="100" height="80" as="geometry" />
        </mxCell>
        <mxCell id="nSXJ9mcBRlVtJKenyXMZ-5" value="STATE_0" style="swimlane;fontStyle=0;childLayout=stackLayout;horizontal=1;startSize=30;horizontalStack=0;resizeParent=1;resizeParentMax=0;resizeLast=0;collapsible=1;marginBottom=0;whiteSpace=wrap;html=1;" parent="WIyWlLk6GJQsqaUBKTNV-1" vertex="1">
          <mxGeometry x="50" y="200" width="140" height="60" as="geometry" />
        </mxCell>
        <mxCell id="nSXJ9mcBRlVtJKenyXMZ-6" value="Ledy na czerwono" style="text;strokeColor=none;fillColor=none;align=left;verticalAlign=middle;spacingLeft=4;spacingRight=4;overflow=hidden;points=[[0,0.5],[1,0.5]];portConstraint=eastwest;rotatable=0;whiteSpace=wrap;html=1;" parent="nSXJ9mcBRlVtJKenyXMZ-5" vertex="1">
          <mxGeometry y="30" width="140" height="30" as="geometry" />
        </mxCell>
        <mxCell id="nSXJ9mcBRlVtJKenyXMZ-12" value="Niski stan baterii&lt;br&gt;AND&lt;br&gt;60 s od ostatniego powiadomienia" style="rhombus;whiteSpace=wrap;html=1;shadow=0;fontFamily=Helvetica;fontSize=12;align=center;strokeWidth=1;spacing=6;spacingTop=-4;" parent="WIyWlLk6GJQsqaUBKTNV-1" vertex="1">
          <mxGeometry x="32.5" y="300" width="175" height="140" as="geometry" />
        </mxCell>
        <mxCell id="nSXJ9mcBRlVtJKenyXMZ-15" value="" style="endArrow=classic;html=1;rounded=0;exitX=0.501;exitY=1;exitDx=0;exitDy=0;exitPerimeter=0;entryX=0.5;entryY=0;entryDx=0;entryDy=0;" parent="WIyWlLk6GJQsqaUBKTNV-1" source="nSXJ9mcBRlVtJKenyXMZ-6" target="nSXJ9mcBRlVtJKenyXMZ-12" edge="1">
          <mxGeometry width="50" height="50" relative="1" as="geometry">
            <mxPoint x="205" y="340" as="sourcePoint" />
            <mxPoint x="255" y="290" as="targetPoint" />
          </mxGeometry>
        </mxCell>
        <mxCell id="nSXJ9mcBRlVtJKenyXMZ-36" value="1" style="edgeLabel;html=1;align=center;verticalAlign=middle;resizable=0;points=[];" parent="nSXJ9mcBRlVtJKenyXMZ-15" vertex="1" connectable="0">
          <mxGeometry x="0.0498" y="1" relative="1" as="geometry">
            <mxPoint as="offset" />
          </mxGeometry>
        </mxCell>
        <mxCell id="nSXJ9mcBRlVtJKenyXMZ-16" value="STATE_1" style="swimlane;fontStyle=0;childLayout=stackLayout;horizontal=1;startSize=30;horizontalStack=0;resizeParent=1;resizeParentMax=0;resizeLast=0;collapsible=1;marginBottom=0;whiteSpace=wrap;html=1;" parent="WIyWlLk6GJQsqaUBKTNV-1" vertex="1">
          <mxGeometry x="50" y="480" width="140" height="60" as="geometry" />
        </mxCell>
        <mxCell id="nSXJ9mcBRlVtJKenyXMZ-17" value="Powiadomienie o niskim stanie baterii" style="text;strokeColor=none;fillColor=none;align=left;verticalAlign=middle;spacingLeft=4;spacingRight=4;overflow=hidden;points=[[0,0.5],[1,0.5]];portConstraint=eastwest;rotatable=0;whiteSpace=wrap;html=1;" parent="nSXJ9mcBRlVtJKenyXMZ-16" vertex="1">
          <mxGeometry y="30" width="140" height="30" as="geometry" />
        </mxCell>
        <mxCell id="nSXJ9mcBRlVtJKenyXMZ-18" value="" style="endArrow=classic;html=1;rounded=0;exitX=0.501;exitY=1;exitDx=0;exitDy=0;exitPerimeter=0;entryX=0.5;entryY=0;entryDx=0;entryDy=0;" parent="WIyWlLk6GJQsqaUBKTNV-1" edge="1">
          <mxGeometry width="50" height="50" relative="1" as="geometry">
            <mxPoint x="119.76" y="440" as="sourcePoint" />
            <mxPoint x="119.76" y="480" as="targetPoint" />
          </mxGeometry>
        </mxCell>
        <mxCell id="nSXJ9mcBRlVtJKenyXMZ-23" value="Tak" style="edgeLabel;html=1;align=center;verticalAlign=middle;resizable=0;points=[];" parent="nSXJ9mcBRlVtJKenyXMZ-18" vertex="1" connectable="0">
          <mxGeometry x="-0.5046" y="1" relative="1" as="geometry">
            <mxPoint x="-1" y="10" as="offset" />
          </mxGeometry>
        </mxCell>
        <mxCell id="nSXJ9mcBRlVtJKenyXMZ-19" value="STATE_2" style="swimlane;fontStyle=0;childLayout=stackLayout;horizontal=1;startSize=30;horizontalStack=0;resizeParent=1;resizeParentMax=0;resizeLast=0;collapsible=1;marginBottom=0;whiteSpace=wrap;html=1;" parent="WIyWlLk6GJQsqaUBKTNV-1" vertex="1">
          <mxGeometry x="50" y="620" width="140" height="60" as="geometry" />
        </mxCell>
        <mxCell id="nSXJ9mcBRlVtJKenyXMZ-20" value="Losowy tekst A" style="text;strokeColor=none;fillColor=none;align=left;verticalAlign=middle;spacingLeft=4;spacingRight=4;overflow=hidden;points=[[0,0.5],[1,0.5]];portConstraint=eastwest;rotatable=0;whiteSpace=wrap;html=1;" parent="nSXJ9mcBRlVtJKenyXMZ-19" vertex="1">
          <mxGeometry y="30" width="140" height="30" as="geometry" />
        </mxCell>
        <mxCell id="nSXJ9mcBRlVtJKenyXMZ-21" value="" style="endArrow=classic;html=1;rounded=0;exitX=0.501;exitY=1;exitDx=0;exitDy=0;exitPerimeter=0;entryX=0.496;entryY=0.019;entryDx=0;entryDy=0;entryPerimeter=0;" parent="WIyWlLk6GJQsqaUBKTNV-1" target="nSXJ9mcBRlVtJKenyXMZ-19" edge="1">
          <mxGeometry width="50" height="50" relative="1" as="geometry">
            <mxPoint x="119.75999999999999" y="540" as="sourcePoint" />
            <mxPoint x="119.75999999999999" y="580" as="targetPoint" />
          </mxGeometry>
        </mxCell>
        <mxCell id="nSXJ9mcBRlVtJKenyXMZ-22" value="1" style="edgeLabel;html=1;align=center;verticalAlign=middle;resizable=0;points=[];" parent="nSXJ9mcBRlVtJKenyXMZ-21" vertex="1" connectable="0">
          <mxGeometry x="-0.22" y="1" relative="1" as="geometry">
            <mxPoint as="offset" />
          </mxGeometry>
        </mxCell>
        <mxCell id="nSXJ9mcBRlVtJKenyXMZ-24" value="" style="endArrow=classic;html=1;rounded=0;exitX=0.5;exitY=1;exitDx=0;exitDy=0;entryX=0.5;entryY=0;entryDx=0;entryDy=0;" parent="WIyWlLk6GJQsqaUBKTNV-1" source="WIyWlLk6GJQsqaUBKTNV-3" target="WIyWlLk6GJQsqaUBKTNV-6" edge="1">
          <mxGeometry width="50" height="50" relative="1" as="geometry">
            <mxPoint x="280" y="180" as="sourcePoint" />
            <mxPoint x="330" y="130" as="targetPoint" />
          </mxGeometry>
        </mxCell>
        <mxCell id="nSXJ9mcBRlVtJKenyXMZ-25" value="1" style="edgeLabel;html=1;align=center;verticalAlign=middle;resizable=0;points=[];" parent="nSXJ9mcBRlVtJKenyXMZ-24" vertex="1" connectable="0">
          <mxGeometry x="0.0267" y="1" relative="1" as="geometry">
            <mxPoint x="-1" y="-16" as="offset" />
          </mxGeometry>
        </mxCell>
        <mxCell id="nSXJ9mcBRlVtJKenyXMZ-28" value="" style="endArrow=classic;html=1;rounded=0;exitX=0;exitY=0.5;exitDx=0;exitDy=0;" parent="WIyWlLk6GJQsqaUBKTNV-1" source="WIyWlLk6GJQsqaUBKTNV-6" edge="1">
          <mxGeometry width="50" height="50" relative="1" as="geometry">
            <mxPoint x="210" y="200" as="sourcePoint" />
            <mxPoint x="280" y="150" as="targetPoint" />
          </mxGeometry>
        </mxCell>
        <mxCell id="nSXJ9mcBRlVtJKenyXMZ-29" value="Tak" style="edgeLabel;html=1;align=center;verticalAlign=middle;resizable=0;points=[];" parent="nSXJ9mcBRlVtJKenyXMZ-28" vertex="1" connectable="0">
          <mxGeometry x="-0.1333" relative="1" as="geometry">
            <mxPoint as="offset" />
          </mxGeometry>
        </mxCell>
        <mxCell id="nSXJ9mcBRlVtJKenyXMZ-30" value="" style="endArrow=none;html=1;rounded=0;" parent="WIyWlLk6GJQsqaUBKTNV-1" edge="1">
          <mxGeometry width="50" height="50" relative="1" as="geometry">
            <mxPoint x="120" y="150" as="sourcePoint" />
            <mxPoint x="180" y="150" as="targetPoint" />
          </mxGeometry>
        </mxCell>
        <mxCell id="nSXJ9mcBRlVtJKenyXMZ-32" value="Tak" style="edgeLabel;html=1;align=center;verticalAlign=middle;resizable=0;points=[];" parent="nSXJ9mcBRlVtJKenyXMZ-30" vertex="1" connectable="0">
          <mxGeometry x="-0.1889" y="-2" relative="1" as="geometry">
            <mxPoint as="offset" />
          </mxGeometry>
        </mxCell>
        <mxCell id="nSXJ9mcBRlVtJKenyXMZ-31" value="" style="endArrow=classic;html=1;rounded=0;entryX=0.5;entryY=0;entryDx=0;entryDy=0;" parent="WIyWlLk6GJQsqaUBKTNV-1" target="nSXJ9mcBRlVtJKenyXMZ-5" edge="1">
          <mxGeometry width="50" height="50" relative="1" as="geometry">
            <mxPoint x="120" y="150" as="sourcePoint" />
            <mxPoint x="180" y="160" as="targetPoint" />
          </mxGeometry>
        </mxCell>
        <mxCell id="nSXJ9mcBRlVtJKenyXMZ-33" value="" style="endArrow=none;html=1;rounded=0;" parent="WIyWlLk6GJQsqaUBKTNV-1" edge="1">
          <mxGeometry width="50" height="50" relative="1" as="geometry">
            <mxPoint x="230" y="110" as="sourcePoint" />
            <mxPoint x="230" y="80" as="targetPoint" />
          </mxGeometry>
        </mxCell>
        <mxCell id="nSXJ9mcBRlVtJKenyXMZ-34" value="" style="endArrow=classic;html=1;rounded=0;" parent="WIyWlLk6GJQsqaUBKTNV-1" edge="1">
          <mxGeometry width="50" height="50" relative="1" as="geometry">
            <mxPoint x="230" y="80" as="sourcePoint" />
            <mxPoint x="390" y="80" as="targetPoint" />
          </mxGeometry>
        </mxCell>
        <mxCell id="nSXJ9mcBRlVtJKenyXMZ-35" value="Nie" style="edgeLabel;html=1;align=center;verticalAlign=middle;resizable=0;points=[];" parent="nSXJ9mcBRlVtJKenyXMZ-34" vertex="1" connectable="0">
          <mxGeometry x="-0.5375" relative="1" as="geometry">
            <mxPoint as="offset" />
          </mxGeometry>
        </mxCell>
        <mxCell id="nSXJ9mcBRlVtJKenyXMZ-37" value="" style="endArrow=none;html=1;rounded=0;" parent="WIyWlLk6GJQsqaUBKTNV-1" edge="1">
          <mxGeometry width="50" height="50" relative="1" as="geometry">
            <mxPoint x="207.5" y="370" as="sourcePoint" />
            <mxPoint x="280" y="370" as="targetPoint" />
          </mxGeometry>
        </mxCell>
        <mxCell id="nSXJ9mcBRlVtJKenyXMZ-40" value="Nie" style="edgeLabel;html=1;align=center;verticalAlign=middle;resizable=0;points=[];" parent="nSXJ9mcBRlVtJKenyXMZ-37" vertex="1" connectable="0">
          <mxGeometry x="0.4115" y="-1" relative="1" as="geometry">
            <mxPoint as="offset" />
          </mxGeometry>
        </mxCell>
        <mxCell id="nSXJ9mcBRlVtJKenyXMZ-38" value="" style="endArrow=none;html=1;rounded=0;" parent="WIyWlLk6GJQsqaUBKTNV-1" edge="1">
          <mxGeometry width="50" height="50" relative="1" as="geometry">
            <mxPoint x="280" y="600" as="sourcePoint" />
            <mxPoint x="280" y="370" as="targetPoint" />
          </mxGeometry>
        </mxCell>
        <mxCell id="nSXJ9mcBRlVtJKenyXMZ-39" value="" style="endArrow=classic;html=1;rounded=0;" parent="WIyWlLk6GJQsqaUBKTNV-1" edge="1">
          <mxGeometry width="50" height="50" relative="1" as="geometry">
            <mxPoint x="280" y="600" as="sourcePoint" />
            <mxPoint x="120" y="600" as="targetPoint" />
          </mxGeometry>
        </mxCell>
        <mxCell id="nSXJ9mcBRlVtJKenyXMZ-41" value="" style="endArrow=none;html=1;rounded=0;" parent="WIyWlLk6GJQsqaUBKTNV-1" edge="1">
          <mxGeometry width="50" height="50" relative="1" as="geometry">
            <mxPoint x="120" y="720" as="sourcePoint" />
            <mxPoint x="120" y="680" as="targetPoint" />
          </mxGeometry>
        </mxCell>
        <mxCell id="nSXJ9mcBRlVtJKenyXMZ-45" value="1" style="edgeLabel;html=1;align=center;verticalAlign=middle;resizable=0;points=[];" parent="nSXJ9mcBRlVtJKenyXMZ-41" vertex="1" connectable="0">
          <mxGeometry x="-0.1167" y="-1" relative="1" as="geometry">
            <mxPoint as="offset" />
          </mxGeometry>
        </mxCell>
        <mxCell id="nSXJ9mcBRlVtJKenyXMZ-42" value="" style="endArrow=none;html=1;rounded=0;" parent="WIyWlLk6GJQsqaUBKTNV-1" edge="1">
          <mxGeometry width="50" height="50" relative="1" as="geometry">
            <mxPoint y="720" as="sourcePoint" />
            <mxPoint x="119.76" y="720" as="targetPoint" />
          </mxGeometry>
        </mxCell>
        <mxCell id="nSXJ9mcBRlVtJKenyXMZ-43" value="" style="endArrow=none;html=1;rounded=0;" parent="WIyWlLk6GJQsqaUBKTNV-1" edge="1">
          <mxGeometry width="50" height="50" relative="1" as="geometry">
            <mxPoint y="720" as="sourcePoint" />
            <mxPoint y="60" as="targetPoint" />
          </mxGeometry>
        </mxCell>
        <mxCell id="nSXJ9mcBRlVtJKenyXMZ-44" value="" style="endArrow=classic;html=1;rounded=0;" parent="WIyWlLk6GJQsqaUBKTNV-1" edge="1">
          <mxGeometry width="50" height="50" relative="1" as="geometry">
            <mxPoint y="60" as="sourcePoint" />
            <mxPoint x="390" y="60" as="targetPoint" />
          </mxGeometry>
        </mxCell>
        <mxCell id="nSXJ9mcBRlVtJKenyXMZ-46" value="" style="endArrow=classic;html=1;rounded=0;exitX=1;exitY=0.5;exitDx=0;exitDy=0;" parent="WIyWlLk6GJQsqaUBKTNV-1" source="WIyWlLk6GJQsqaUBKTNV-6" edge="1">
          <mxGeometry width="50" height="50" relative="1" as="geometry">
            <mxPoint x="520" y="180" as="sourcePoint" />
            <mxPoint x="520" y="150" as="targetPoint" />
          </mxGeometry>
        </mxCell>
        <mxCell id="nSXJ9mcBRlVtJKenyXMZ-47" value="Nie" style="edgeLabel;html=1;align=center;verticalAlign=middle;resizable=0;points=[];" parent="nSXJ9mcBRlVtJKenyXMZ-46" vertex="1" connectable="0">
          <mxGeometry x="-0.1333" relative="1" as="geometry">
            <mxPoint as="offset" />
          </mxGeometry>
        </mxCell>
        <mxCell id="nSXJ9mcBRlVtJKenyXMZ-48" value="Przycisk?" style="rhombus;whiteSpace=wrap;html=1;shadow=0;fontFamily=Helvetica;fontSize=12;align=center;strokeWidth=1;spacing=6;spacingTop=-4;" parent="WIyWlLk6GJQsqaUBKTNV-1" vertex="1">
          <mxGeometry x="520" y="110" width="100" height="80" as="geometry" />
        </mxCell>
        <mxCell id="VlcBlRw5gI0S2deszUiy-0" value="Pokrętło?" style="rhombus;whiteSpace=wrap;html=1;shadow=0;fontFamily=Helvetica;fontSize=12;align=center;strokeWidth=1;spacing=6;spacingTop=-4;" vertex="1" parent="WIyWlLk6GJQsqaUBKTNV-1">
          <mxGeometry x="760" y="110" width="100" height="80" as="geometry" />
        </mxCell>
        <mxCell id="VlcBlRw5gI0S2deszUiy-1" value="" style="endArrow=classic;html=1;rounded=0;exitX=1;exitY=0.5;exitDx=0;exitDy=0;entryX=0;entryY=0.5;entryDx=0;entryDy=0;" edge="1" parent="WIyWlLk6GJQsqaUBKTNV-1" target="VlcBlRw5gI0S2deszUiy-0">
          <mxGeometry width="50" height="50" relative="1" as="geometry">
            <mxPoint x="620" y="149.8" as="sourcePoint" />
            <mxPoint x="700" y="149.8" as="targetPoint" />
          </mxGeometry>
        </mxCell>
        <mxCell id="VlcBlRw5gI0S2deszUiy-2" value="Nie" style="edgeLabel;html=1;align=center;verticalAlign=middle;resizable=0;points=[];" vertex="1" connectable="0" parent="VlcBlRw5gI0S2deszUiy-1">
          <mxGeometry x="-0.1333" relative="1" as="geometry">
            <mxPoint as="offset" />
          </mxGeometry>
        </mxCell>
        <mxCell id="VlcBlRw5gI0S2deszUiy-3" value="" style="endArrow=classic;html=1;rounded=0;exitX=0;exitY=0.5;exitDx=0;exitDy=0;entryX=0.493;entryY=-0.024;entryDx=0;entryDy=0;entryPerimeter=0;" edge="1" parent="WIyWlLk6GJQsqaUBKTNV-1" target="VlcBlRw5gI0S2deszUiy-5">
          <mxGeometry width="50" height="50" relative="1" as="geometry">
            <mxPoint x="809.8" y="190" as="sourcePoint" />
            <mxPoint x="809.8" y="240" as="targetPoint" />
          </mxGeometry>
        </mxCell>
        <mxCell id="VlcBlRw5gI0S2deszUiy-4" value="Tak" style="edgeLabel;html=1;align=center;verticalAlign=middle;resizable=0;points=[];" vertex="1" connectable="0" parent="VlcBlRw5gI0S2deszUiy-3">
          <mxGeometry x="-0.1333" relative="1" as="geometry">
            <mxPoint x="1" y="-14" as="offset" />
          </mxGeometry>
        </mxCell>
        <mxCell id="VlcBlRw5gI0S2deszUiy-5" value="STATE_4" style="swimlane;fontStyle=0;childLayout=stackLayout;horizontal=1;startSize=30;horizontalStack=0;resizeParent=1;resizeParentMax=0;resizeLast=0;collapsible=1;marginBottom=0;whiteSpace=wrap;html=1;" vertex="1" parent="WIyWlLk6GJQsqaUBKTNV-1">
          <mxGeometry x="740" y="270" width="140" height="90" as="geometry" />
        </mxCell>
        <mxCell id="VlcBlRw5gI0S2deszUiy-6" value="Ledy na zielono" style="text;strokeColor=none;fillColor=none;align=left;verticalAlign=middle;spacingLeft=4;spacingRight=4;overflow=hidden;points=[[0,0.5],[1,0.5]];portConstraint=eastwest;rotatable=0;whiteSpace=wrap;html=1;" vertex="1" parent="VlcBlRw5gI0S2deszUiy-5">
          <mxGeometry y="30" width="140" height="30" as="geometry" />
        </mxCell>
        <mxCell id="VlcBlRw5gI0S2deszUiy-8" value="Tekst &quot;Naciśnij, aby otworzyć&quot;" style="text;strokeColor=none;fillColor=none;align=left;verticalAlign=middle;spacingLeft=4;spacingRight=4;overflow=hidden;points=[[0,0.5],[1,0.5]];portConstraint=eastwest;rotatable=0;whiteSpace=wrap;html=1;" vertex="1" parent="VlcBlRw5gI0S2deszUiy-5">
          <mxGeometry y="60" width="140" height="30" as="geometry" />
        </mxCell>
        <mxCell id="VlcBlRw5gI0S2deszUiy-10" value="Przeskoki enkodera&lt;br&gt;&amp;gt; 3" style="rhombus;whiteSpace=wrap;html=1;shadow=0;fontFamily=Helvetica;fontSize=12;align=center;strokeWidth=1;spacing=6;spacingTop=-4;" vertex="1" parent="WIyWlLk6GJQsqaUBKTNV-1">
          <mxGeometry x="760" y="430" width="100" height="80" as="geometry" />
        </mxCell>
        <mxCell id="VlcBlRw5gI0S2deszUiy-17" value="" style="endArrow=classic;html=1;rounded=0;exitX=0.499;exitY=0.992;exitDx=0;exitDy=0;exitPerimeter=0;entryX=0.5;entryY=0;entryDx=0;entryDy=0;" edge="1" parent="WIyWlLk6GJQsqaUBKTNV-1" source="VlcBlRw5gI0S2deszUiy-8" target="VlcBlRw5gI0S2deszUiy-10">
          <mxGeometry width="50" height="50" relative="1" as="geometry">
            <mxPoint x="910" y="470" as="sourcePoint" />
            <mxPoint x="960" y="420" as="targetPoint" />
          </mxGeometry>
        </mxCell>
        <mxCell id="VlcBlRw5gI0S2deszUiy-18" value="1" style="edgeLabel;html=1;align=center;verticalAlign=middle;resizable=0;points=[];" vertex="1" connectable="0" parent="VlcBlRw5gI0S2deszUiy-17">
          <mxGeometry x="-0.4838" y="1" relative="1" as="geometry">
            <mxPoint x="-1" y="2" as="offset" />
          </mxGeometry>
        </mxCell>
        <mxCell id="VlcBlRw5gI0S2deszUiy-19" value="" style="endArrow=classic;html=1;rounded=0;exitX=0.5;exitY=1;exitDx=0;exitDy=0;" edge="1" parent="WIyWlLk6GJQsqaUBKTNV-1" source="VlcBlRw5gI0S2deszUiy-10">
          <mxGeometry width="50" height="50" relative="1" as="geometry">
            <mxPoint x="800" y="570" as="sourcePoint" />
            <mxPoint x="810" y="560" as="targetPoint" />
          </mxGeometry>
        </mxCell>
        <mxCell id="VlcBlRw5gI0S2deszUiy-20" value="Tak" style="edgeLabel;html=1;align=center;verticalAlign=middle;resizable=0;points=[];" vertex="1" connectable="0" parent="VlcBlRw5gI0S2deszUiy-19">
          <mxGeometry x="-0.1451" relative="1" as="geometry">
            <mxPoint as="offset" />
          </mxGeometry>
        </mxCell>
        <mxCell id="VlcBlRw5gI0S2deszUiy-21" value="" style="endArrow=none;html=1;rounded=0;" edge="1" parent="WIyWlLk6GJQsqaUBKTNV-1">
          <mxGeometry width="50" height="50" relative="1" as="geometry">
            <mxPoint x="720" y="470" as="sourcePoint" />
            <mxPoint x="760" y="470" as="targetPoint" />
          </mxGeometry>
        </mxCell>
        <mxCell id="VlcBlRw5gI0S2deszUiy-24" value="Nie" style="edgeLabel;html=1;align=center;verticalAlign=middle;resizable=0;points=[];" vertex="1" connectable="0" parent="VlcBlRw5gI0S2deszUiy-21">
          <mxGeometry x="0.0885" y="1" relative="1" as="geometry">
            <mxPoint as="offset" />
          </mxGeometry>
        </mxCell>
        <mxCell id="VlcBlRw5gI0S2deszUiy-22" value="" style="endArrow=none;html=1;rounded=0;" edge="1" parent="WIyWlLk6GJQsqaUBKTNV-1">
          <mxGeometry width="50" height="50" relative="1" as="geometry">
            <mxPoint x="720" y="470" as="sourcePoint" />
            <mxPoint x="720" y="400" as="targetPoint" />
          </mxGeometry>
        </mxCell>
        <mxCell id="VlcBlRw5gI0S2deszUiy-23" value="" style="endArrow=classic;html=1;rounded=0;" edge="1" parent="WIyWlLk6GJQsqaUBKTNV-1">
          <mxGeometry width="50" height="50" relative="1" as="geometry">
            <mxPoint x="720" y="400" as="sourcePoint" />
            <mxPoint x="810" y="400" as="targetPoint" />
          </mxGeometry>
        </mxCell>
        <mxCell id="VlcBlRw5gI0S2deszUiy-25" value="" style="endArrow=none;html=1;rounded=0;" edge="1" parent="WIyWlLk6GJQsqaUBKTNV-1">
          <mxGeometry width="50" height="50" relative="1" as="geometry">
            <mxPoint x="860" y="150" as="sourcePoint" />
            <mxPoint x="920" y="150" as="targetPoint" />
          </mxGeometry>
        </mxCell>
        <mxCell id="VlcBlRw5gI0S2deszUiy-28" value="Nie" style="edgeLabel;html=1;align=center;verticalAlign=middle;resizable=0;points=[];" vertex="1" connectable="0" parent="VlcBlRw5gI0S2deszUiy-25">
          <mxGeometry x="-0.3" y="-1" relative="1" as="geometry">
            <mxPoint as="offset" />
          </mxGeometry>
        </mxCell>
        <mxCell id="VlcBlRw5gI0S2deszUiy-26" value="" style="endArrow=none;html=1;rounded=0;" edge="1" parent="WIyWlLk6GJQsqaUBKTNV-1">
          <mxGeometry width="50" height="50" relative="1" as="geometry">
            <mxPoint x="920" y="150" as="sourcePoint" />
            <mxPoint x="920" y="80" as="targetPoint" />
          </mxGeometry>
        </mxCell>
        <mxCell id="VlcBlRw5gI0S2deszUiy-27" value="" style="endArrow=classic;html=1;rounded=0;" edge="1" parent="WIyWlLk6GJQsqaUBKTNV-1">
          <mxGeometry width="50" height="50" relative="1" as="geometry">
            <mxPoint x="920" y="80" as="sourcePoint" />
            <mxPoint x="390" y="80" as="targetPoint" />
          </mxGeometry>
        </mxCell>
        <mxCell id="VlcBlRw5gI0S2deszUiy-29" value="STATE_5" style="swimlane;fontStyle=0;childLayout=stackLayout;horizontal=1;startSize=30;horizontalStack=0;resizeParent=1;resizeParentMax=0;resizeLast=0;collapsible=1;marginBottom=0;whiteSpace=wrap;html=1;" vertex="1" parent="WIyWlLk6GJQsqaUBKTNV-1">
          <mxGeometry x="740" y="560" width="140" height="90" as="geometry" />
        </mxCell>
        <mxCell id="VlcBlRw5gI0S2deszUiy-30" value="Ledy na zielono" style="text;strokeColor=none;fillColor=none;align=left;verticalAlign=middle;spacingLeft=4;spacingRight=4;overflow=hidden;points=[[0,0.5],[1,0.5]];portConstraint=eastwest;rotatable=0;whiteSpace=wrap;html=1;" vertex="1" parent="VlcBlRw5gI0S2deszUiy-29">
          <mxGeometry y="30" width="140" height="30" as="geometry" />
        </mxCell>
        <mxCell id="VlcBlRw5gI0S2deszUiy-31" value="Włącz TIMER_0" style="text;strokeColor=none;fillColor=none;align=left;verticalAlign=middle;spacingLeft=4;spacingRight=4;overflow=hidden;points=[[0,0.5],[1,0.5]];portConstraint=eastwest;rotatable=0;whiteSpace=wrap;html=1;" vertex="1" parent="VlcBlRw5gI0S2deszUiy-29">
          <mxGeometry y="60" width="140" height="30" as="geometry" />
        </mxCell>
        <mxCell id="VlcBlRw5gI0S2deszUiy-35" value="" style="endArrow=classic;html=1;rounded=0;exitX=0.499;exitY=0.992;exitDx=0;exitDy=0;exitPerimeter=0;entryX=0.5;entryY=0;entryDx=0;entryDy=0;" edge="1" parent="WIyWlLk6GJQsqaUBKTNV-1">
          <mxGeometry width="50" height="50" relative="1" as="geometry">
            <mxPoint x="809.78" y="650" as="sourcePoint" />
            <mxPoint x="809.78" y="720" as="targetPoint" />
          </mxGeometry>
        </mxCell>
        <mxCell id="VlcBlRw5gI0S2deszUiy-36" value="1" style="edgeLabel;html=1;align=center;verticalAlign=middle;resizable=0;points=[];" vertex="1" connectable="0" parent="VlcBlRw5gI0S2deszUiy-35">
          <mxGeometry x="-0.4838" y="1" relative="1" as="geometry">
            <mxPoint x="-1" y="2" as="offset" />
          </mxGeometry>
        </mxCell>
        <mxCell id="VlcBlRw5gI0S2deszUiy-37" value="Wciśnięcie przycisku&lt;br&gt;OR&lt;br&gt;zegar = 0" style="rhombus;whiteSpace=wrap;html=1;shadow=0;fontFamily=Helvetica;fontSize=12;align=center;strokeWidth=1;spacing=6;spacingTop=-4;" vertex="1" parent="WIyWlLk6GJQsqaUBKTNV-1">
          <mxGeometry x="760" y="720" width="100" height="80" as="geometry" />
        </mxCell>
        <mxCell id="VlcBlRw5gI0S2deszUiy-38" value="" style="endArrow=none;html=1;rounded=0;" edge="1" parent="WIyWlLk6GJQsqaUBKTNV-1">
          <mxGeometry width="50" height="50" relative="1" as="geometry">
            <mxPoint x="680" y="760" as="sourcePoint" />
            <mxPoint x="760" y="759.63" as="targetPoint" />
          </mxGeometry>
        </mxCell>
        <mxCell id="VlcBlRw5gI0S2deszUiy-39" value="Tak" style="edgeLabel;html=1;align=center;verticalAlign=middle;resizable=0;points=[];" vertex="1" connectable="0" parent="VlcBlRw5gI0S2deszUiy-38">
          <mxGeometry x="-0.1889" y="-2" relative="1" as="geometry">
            <mxPoint as="offset" />
          </mxGeometry>
        </mxCell>
        <mxCell id="VlcBlRw5gI0S2deszUiy-42" value="TIMER_0&lt;br&gt;&amp;gt;&lt;div&gt;2 s&lt;/div&gt;" style="rhombus;whiteSpace=wrap;html=1;shadow=0;fontFamily=Helvetica;fontSize=12;align=center;strokeWidth=1;spacing=6;spacingTop=-4;" vertex="1" parent="WIyWlLk6GJQsqaUBKTNV-1">
          <mxGeometry x="920" y="720" width="100" height="80" as="geometry" />
        </mxCell>
        <mxCell id="VlcBlRw5gI0S2deszUiy-43" value="" style="endArrow=classic;html=1;rounded=0;entryX=0;entryY=0.5;entryDx=0;entryDy=0;" edge="1" parent="WIyWlLk6GJQsqaUBKTNV-1" target="VlcBlRw5gI0S2deszUiy-42">
          <mxGeometry width="50" height="50" relative="1" as="geometry">
            <mxPoint x="860" y="760" as="sourcePoint" />
            <mxPoint x="910" y="710" as="targetPoint" />
          </mxGeometry>
        </mxCell>
        <mxCell id="VlcBlRw5gI0S2deszUiy-44" value="Nie" style="edgeLabel;html=1;align=center;verticalAlign=middle;resizable=0;points=[];" vertex="1" connectable="0" parent="VlcBlRw5gI0S2deszUiy-43">
          <mxGeometry x="0.1933" y="2" relative="1" as="geometry">
            <mxPoint x="-16" y="2" as="offset" />
          </mxGeometry>
        </mxCell>
        <mxCell id="VlcBlRw5gI0S2deszUiy-45" value="" style="endArrow=none;html=1;rounded=0;" edge="1" parent="WIyWlLk6GJQsqaUBKTNV-1">
          <mxGeometry width="50" height="50" relative="1" as="geometry">
            <mxPoint x="1020" y="760" as="sourcePoint" />
            <mxPoint x="1080" y="760" as="targetPoint" />
          </mxGeometry>
        </mxCell>
        <mxCell id="VlcBlRw5gI0S2deszUiy-48" value="Nie" style="edgeLabel;html=1;align=center;verticalAlign=middle;resizable=0;points=[];" vertex="1" connectable="0" parent="VlcBlRw5gI0S2deszUiy-45">
          <mxGeometry x="0.1267" y="1" relative="1" as="geometry">
            <mxPoint as="offset" />
          </mxGeometry>
        </mxCell>
        <mxCell id="VlcBlRw5gI0S2deszUiy-46" value="" style="endArrow=none;html=1;rounded=0;" edge="1" parent="WIyWlLk6GJQsqaUBKTNV-1">
          <mxGeometry width="50" height="50" relative="1" as="geometry">
            <mxPoint x="1080" y="760" as="sourcePoint" />
            <mxPoint x="1080" y="700" as="targetPoint" />
          </mxGeometry>
        </mxCell>
        <mxCell id="VlcBlRw5gI0S2deszUiy-47" value="" style="endArrow=classic;html=1;rounded=0;" edge="1" parent="WIyWlLk6GJQsqaUBKTNV-1">
          <mxGeometry width="50" height="50" relative="1" as="geometry">
            <mxPoint x="1080" y="700" as="sourcePoint" />
            <mxPoint x="810" y="700" as="targetPoint" />
          </mxGeometry>
        </mxCell>
        <mxCell id="VlcBlRw5gI0S2deszUiy-49" value="" style="endArrow=classic;html=1;rounded=0;exitX=0.5;exitY=1;exitDx=0;exitDy=0;" edge="1" parent="WIyWlLk6GJQsqaUBKTNV-1" source="VlcBlRw5gI0S2deszUiy-42">
          <mxGeometry width="50" height="50" relative="1" as="geometry">
            <mxPoint x="870" y="870" as="sourcePoint" />
            <mxPoint x="970" y="880" as="targetPoint" />
          </mxGeometry>
        </mxCell>
        <mxCell id="VlcBlRw5gI0S2deszUiy-50" value="Tak" style="edgeLabel;html=1;align=center;verticalAlign=middle;resizable=0;points=[];" vertex="1" connectable="0" parent="VlcBlRw5gI0S2deszUiy-49">
          <mxGeometry x="-0.135" y="-1" relative="1" as="geometry">
            <mxPoint x="1" y="-15" as="offset" />
          </mxGeometry>
        </mxCell>
        <mxCell id="VlcBlRw5gI0S2deszUiy-68" value="STATE_6" style="swimlane;fontStyle=0;childLayout=stackLayout;horizontal=1;startSize=30;horizontalStack=0;resizeParent=1;resizeParentMax=0;resizeLast=0;collapsible=1;marginBottom=0;whiteSpace=wrap;html=1;" vertex="1" parent="WIyWlLk6GJQsqaUBKTNV-1">
          <mxGeometry x="900" y="1040" width="140" height="90" as="geometry" />
        </mxCell>
        <mxCell id="VlcBlRw5gI0S2deszUiy-69" value="Aktualizacja licznika" style="text;strokeColor=none;fillColor=none;align=left;verticalAlign=middle;spacingLeft=4;spacingRight=4;overflow=hidden;points=[[0,0.5],[1,0.5]];portConstraint=eastwest;rotatable=0;whiteSpace=wrap;html=1;" vertex="1" parent="VlcBlRw5gI0S2deszUiy-68">
          <mxGeometry y="30" width="140" height="30" as="geometry" />
        </mxCell>
        <mxCell id="VlcBlRw5gI0S2deszUiy-70" value="TIMER_1 set = 0" style="text;strokeColor=none;fillColor=none;align=left;verticalAlign=middle;spacingLeft=4;spacingRight=4;overflow=hidden;points=[[0,0.5],[1,0.5]];portConstraint=eastwest;rotatable=0;whiteSpace=wrap;html=1;" vertex="1" parent="VlcBlRw5gI0S2deszUiy-68">
          <mxGeometry y="60" width="140" height="30" as="geometry" />
        </mxCell>
        <mxCell id="VlcBlRw5gI0S2deszUiy-71" value="" style="endArrow=classic;html=1;rounded=0;exitX=0.5;exitY=1;exitDx=0;exitDy=0;" edge="1" parent="WIyWlLk6GJQsqaUBKTNV-1">
          <mxGeometry width="50" height="50" relative="1" as="geometry">
            <mxPoint x="969.76" y="960" as="sourcePoint" />
            <mxPoint x="969.76" y="1040" as="targetPoint" />
          </mxGeometry>
        </mxCell>
        <mxCell id="VlcBlRw5gI0S2deszUiy-72" value="Tak" style="edgeLabel;html=1;align=center;verticalAlign=middle;resizable=0;points=[];" vertex="1" connectable="0" parent="VlcBlRw5gI0S2deszUiy-71">
          <mxGeometry x="-0.135" y="-1" relative="1" as="geometry">
            <mxPoint x="1" y="-14" as="offset" />
          </mxGeometry>
        </mxCell>
        <mxCell id="VlcBlRw5gI0S2deszUiy-74" value="Pokrętło?" style="rhombus;whiteSpace=wrap;html=1;shadow=0;fontFamily=Helvetica;fontSize=12;align=center;strokeWidth=1;spacing=6;spacingTop=-4;" vertex="1" parent="WIyWlLk6GJQsqaUBKTNV-1">
          <mxGeometry x="920" y="1210" width="100" height="80" as="geometry" />
        </mxCell>
        <mxCell id="VlcBlRw5gI0S2deszUiy-75" value="Pokrętło?" style="rhombus;whiteSpace=wrap;html=1;shadow=0;fontFamily=Helvetica;fontSize=12;align=center;strokeWidth=1;spacing=6;spacingTop=-4;" vertex="1" parent="WIyWlLk6GJQsqaUBKTNV-1">
          <mxGeometry x="920" y="880" width="100" height="80" as="geometry" />
        </mxCell>
        <mxCell id="VlcBlRw5gI0S2deszUiy-77" value="" style="endArrow=classic;html=1;rounded=0;exitX=0.5;exitY=1;exitDx=0;exitDy=0;" edge="1" parent="WIyWlLk6GJQsqaUBKTNV-1">
          <mxGeometry width="50" height="50" relative="1" as="geometry">
            <mxPoint x="969.66" y="1130" as="sourcePoint" />
            <mxPoint x="969.66" y="1210" as="targetPoint" />
          </mxGeometry>
        </mxCell>
        <mxCell id="VlcBlRw5gI0S2deszUiy-78" value="1" style="edgeLabel;html=1;align=center;verticalAlign=middle;resizable=0;points=[];" vertex="1" connectable="0" parent="VlcBlRw5gI0S2deszUiy-77">
          <mxGeometry x="-0.135" y="-1" relative="1" as="geometry">
            <mxPoint x="1" y="-14" as="offset" />
          </mxGeometry>
        </mxCell>
        <mxCell id="VlcBlRw5gI0S2deszUiy-80" value="" style="endArrow=none;html=1;rounded=0;" edge="1" parent="WIyWlLk6GJQsqaUBKTNV-1">
          <mxGeometry width="50" height="50" relative="1" as="geometry">
            <mxPoint x="830" y="1250" as="sourcePoint" />
            <mxPoint x="830" y="1010" as="targetPoint" />
          </mxGeometry>
        </mxCell>
        <mxCell id="VlcBlRw5gI0S2deszUiy-81" value="" style="endArrow=none;html=1;rounded=0;" edge="1" parent="WIyWlLk6GJQsqaUBKTNV-1">
          <mxGeometry width="50" height="50" relative="1" as="geometry">
            <mxPoint x="830" y="1250" as="sourcePoint" />
            <mxPoint x="920" y="1250" as="targetPoint" />
          </mxGeometry>
        </mxCell>
        <mxCell id="VlcBlRw5gI0S2deszUiy-83" value="Tak" style="edgeLabel;html=1;align=center;verticalAlign=middle;resizable=0;points=[];" vertex="1" connectable="0" parent="VlcBlRw5gI0S2deszUiy-81">
          <mxGeometry x="0.2133" y="-2" relative="1" as="geometry">
            <mxPoint as="offset" />
          </mxGeometry>
        </mxCell>
        <mxCell id="VlcBlRw5gI0S2deszUiy-82" value="" style="endArrow=classic;html=1;rounded=0;" edge="1" parent="WIyWlLk6GJQsqaUBKTNV-1">
          <mxGeometry width="50" height="50" relative="1" as="geometry">
            <mxPoint x="830" y="1010" as="sourcePoint" />
            <mxPoint x="970" y="1010" as="targetPoint" />
          </mxGeometry>
        </mxCell>
        <mxCell id="VlcBlRw5gI0S2deszUiy-84" value="" style="endArrow=classic;html=1;rounded=0;" edge="1" parent="WIyWlLk6GJQsqaUBKTNV-1">
          <mxGeometry width="50" height="50" relative="1" as="geometry">
            <mxPoint x="1020" y="1250" as="sourcePoint" />
            <mxPoint x="1120" y="1250" as="targetPoint" />
          </mxGeometry>
        </mxCell>
        <mxCell id="VlcBlRw5gI0S2deszUiy-85" value="Nie" style="edgeLabel;html=1;align=center;verticalAlign=middle;resizable=0;points=[];" vertex="1" connectable="0" parent="VlcBlRw5gI0S2deszUiy-84">
          <mxGeometry x="-0.2971" relative="1" as="geometry">
            <mxPoint as="offset" />
          </mxGeometry>
        </mxCell>
        <mxCell id="VlcBlRw5gI0S2deszUiy-86" value="TIMER_1&lt;br&gt;=&lt;br&gt;1 s" style="rhombus;whiteSpace=wrap;html=1;shadow=0;fontFamily=Helvetica;fontSize=12;align=center;strokeWidth=1;spacing=6;spacingTop=-4;" vertex="1" parent="WIyWlLk6GJQsqaUBKTNV-1">
          <mxGeometry x="1120" y="1210" width="100" height="80" as="geometry" />
        </mxCell>
        <mxCell id="VlcBlRw5gI0S2deszUiy-87" value="" style="endArrow=classic;html=1;rounded=0;exitX=0.5;exitY=1;exitDx=0;exitDy=0;" edge="1" parent="WIyWlLk6GJQsqaUBKTNV-1" source="VlcBlRw5gI0S2deszUiy-86">
          <mxGeometry width="50" height="50" relative="1" as="geometry">
            <mxPoint x="1170" y="1380" as="sourcePoint" />
            <mxPoint x="1170" y="1360" as="targetPoint" />
          </mxGeometry>
        </mxCell>
        <mxCell id="VlcBlRw5gI0S2deszUiy-92" value="Tak" style="edgeLabel;html=1;align=center;verticalAlign=middle;resizable=0;points=[];" vertex="1" connectable="0" parent="VlcBlRw5gI0S2deszUiy-87">
          <mxGeometry x="-0.4408" y="2" relative="1" as="geometry">
            <mxPoint as="offset" />
          </mxGeometry>
        </mxCell>
        <mxCell id="VlcBlRw5gI0S2deszUiy-88" value="" style="endArrow=none;html=1;rounded=0;" edge="1" parent="WIyWlLk6GJQsqaUBKTNV-1">
          <mxGeometry width="50" height="50" relative="1" as="geometry">
            <mxPoint x="1220" y="1250" as="sourcePoint" />
            <mxPoint x="1280" y="1250" as="targetPoint" />
          </mxGeometry>
        </mxCell>
        <mxCell id="VlcBlRw5gI0S2deszUiy-91" value="Nie" style="edgeLabel;html=1;align=center;verticalAlign=middle;resizable=0;points=[];" vertex="1" connectable="0" parent="VlcBlRw5gI0S2deszUiy-88">
          <mxGeometry x="-0.0381" y="2" relative="1" as="geometry">
            <mxPoint as="offset" />
          </mxGeometry>
        </mxCell>
        <mxCell id="VlcBlRw5gI0S2deszUiy-89" value="" style="endArrow=none;html=1;rounded=0;" edge="1" parent="WIyWlLk6GJQsqaUBKTNV-1">
          <mxGeometry width="50" height="50" relative="1" as="geometry">
            <mxPoint x="1280" y="1250" as="sourcePoint" />
            <mxPoint x="1280" y="1180" as="targetPoint" />
          </mxGeometry>
        </mxCell>
        <mxCell id="VlcBlRw5gI0S2deszUiy-90" value="" style="endArrow=classic;html=1;rounded=0;" edge="1" parent="WIyWlLk6GJQsqaUBKTNV-1">
          <mxGeometry width="50" height="50" relative="1" as="geometry">
            <mxPoint x="1280" y="1180" as="sourcePoint" />
            <mxPoint x="970" y="1180" as="targetPoint" />
          </mxGeometry>
        </mxCell>
        <mxCell id="VlcBlRw5gI0S2deszUiy-93" value="Zegar&lt;br&gt;=&lt;br&gt;0" style="rhombus;whiteSpace=wrap;html=1;shadow=0;fontFamily=Helvetica;fontSize=12;align=center;strokeWidth=1;spacing=6;spacingTop=-4;" vertex="1" parent="WIyWlLk6GJQsqaUBKTNV-1">
          <mxGeometry x="1120" y="1360" width="100" height="80" as="geometry" />
        </mxCell>
        <mxCell id="VlcBlRw5gI0S2deszUiy-94" value="" style="endArrow=classic;html=1;rounded=0;" edge="1" parent="WIyWlLk6GJQsqaUBKTNV-1">
          <mxGeometry width="50" height="50" relative="1" as="geometry">
            <mxPoint x="1040" y="1400" as="sourcePoint" />
            <mxPoint x="1040" y="1480" as="targetPoint" />
          </mxGeometry>
        </mxCell>
        <mxCell id="VlcBlRw5gI0S2deszUiy-96" value="" style="endArrow=none;html=1;rounded=0;" edge="1" parent="WIyWlLk6GJQsqaUBKTNV-1">
          <mxGeometry width="50" height="50" relative="1" as="geometry">
            <mxPoint x="1040" y="1400" as="sourcePoint" />
            <mxPoint x="1120" y="1400" as="targetPoint" />
          </mxGeometry>
        </mxCell>
        <mxCell id="VlcBlRw5gI0S2deszUiy-97" value="Tak" style="edgeLabel;html=1;align=center;verticalAlign=middle;resizable=0;points=[];" vertex="1" connectable="0" parent="VlcBlRw5gI0S2deszUiy-96">
          <mxGeometry x="0.3071" y="1" relative="1" as="geometry">
            <mxPoint as="offset" />
          </mxGeometry>
        </mxCell>
        <mxCell id="VlcBlRw5gI0S2deszUiy-98" value="STATE_7" style="swimlane;fontStyle=0;childLayout=stackLayout;horizontal=1;startSize=30;horizontalStack=0;resizeParent=1;resizeParentMax=0;resizeLast=0;collapsible=1;marginBottom=0;whiteSpace=wrap;html=1;" vertex="1" parent="WIyWlLk6GJQsqaUBKTNV-1">
          <mxGeometry x="970" y="1480" width="140" height="60" as="geometry" />
        </mxCell>
        <mxCell id="VlcBlRw5gI0S2deszUiy-99" value="LEDY na zielono" style="text;strokeColor=none;fillColor=none;align=left;verticalAlign=middle;spacingLeft=4;spacingRight=4;overflow=hidden;points=[[0,0.5],[1,0.5]];portConstraint=eastwest;rotatable=0;whiteSpace=wrap;html=1;" vertex="1" parent="VlcBlRw5gI0S2deszUiy-98">
          <mxGeometry y="30" width="140" height="30" as="geometry" />
        </mxCell>
        <mxCell id="VlcBlRw5gI0S2deszUiy-101" value="" style="endArrow=classic;html=1;rounded=0;exitX=0.507;exitY=1.104;exitDx=0;exitDy=0;exitPerimeter=0;entryX=0.5;entryY=0;entryDx=0;entryDy=0;" edge="1" parent="WIyWlLk6GJQsqaUBKTNV-1" target="VlcBlRw5gI0S2deszUiy-102">
          <mxGeometry width="50" height="50" relative="1" as="geometry">
            <mxPoint x="1039.92" y="1540" as="sourcePoint" />
            <mxPoint x="1039.94" y="1596.88" as="targetPoint" />
          </mxGeometry>
        </mxCell>
        <mxCell id="VlcBlRw5gI0S2deszUiy-103" value="1" style="edgeLabel;html=1;align=center;verticalAlign=middle;resizable=0;points=[];" vertex="1" connectable="0" parent="VlcBlRw5gI0S2deszUiy-101">
          <mxGeometry x="-0.137" relative="1" as="geometry">
            <mxPoint as="offset" />
          </mxGeometry>
        </mxCell>
        <mxCell id="VlcBlRw5gI0S2deszUiy-102" value="Licznik razy &amp;lt; 2&lt;br&gt;AND&lt;br&gt;Last komunikat &amp;gt; 60 minut temu" style="rhombus;whiteSpace=wrap;html=1;shadow=0;fontFamily=Helvetica;fontSize=12;align=center;strokeWidth=1;spacing=6;spacingTop=-4;" vertex="1" parent="WIyWlLk6GJQsqaUBKTNV-1">
          <mxGeometry x="965" y="1600" width="150" height="120" as="geometry" />
        </mxCell>
        <mxCell id="VlcBlRw5gI0S2deszUiy-104" value="" style="endArrow=classic;html=1;rounded=0;exitX=0.5;exitY=1;exitDx=0;exitDy=0;" edge="1" parent="WIyWlLk6GJQsqaUBKTNV-1" source="VlcBlRw5gI0S2deszUiy-102">
          <mxGeometry width="50" height="50" relative="1" as="geometry">
            <mxPoint x="1050" y="1790" as="sourcePoint" />
            <mxPoint x="1040" y="1800" as="targetPoint" />
          </mxGeometry>
        </mxCell>
        <mxCell id="VlcBlRw5gI0S2deszUiy-108" value="Tak" style="edgeLabel;html=1;align=center;verticalAlign=middle;resizable=0;points=[];" vertex="1" connectable="0" parent="VlcBlRw5gI0S2deszUiy-104">
          <mxGeometry x="-0.1926" y="2" relative="1" as="geometry">
            <mxPoint as="offset" />
          </mxGeometry>
        </mxCell>
        <mxCell id="VlcBlRw5gI0S2deszUiy-105" value="STATE_8" style="swimlane;fontStyle=0;childLayout=stackLayout;horizontal=1;startSize=30;horizontalStack=0;resizeParent=1;resizeParentMax=0;resizeLast=0;collapsible=1;marginBottom=0;whiteSpace=wrap;html=1;" vertex="1" parent="WIyWlLk6GJQsqaUBKTNV-1">
          <mxGeometry x="970" y="1800" width="140" height="60" as="geometry" />
        </mxCell>
        <mxCell id="VlcBlRw5gI0S2deszUiy-106" value="Wyświetl komunikat: &quot;Naciśnij, aby otworzyć&quot;" style="text;strokeColor=none;fillColor=none;align=left;verticalAlign=middle;spacingLeft=4;spacingRight=4;overflow=hidden;points=[[0,0.5],[1,0.5]];portConstraint=eastwest;rotatable=0;whiteSpace=wrap;html=1;" vertex="1" parent="VlcBlRw5gI0S2deszUiy-105">
          <mxGeometry y="30" width="140" height="30" as="geometry" />
        </mxCell>
        <mxCell id="VlcBlRw5gI0S2deszUiy-107" value="" style="endArrow=classic;html=1;rounded=0;exitX=0.511;exitY=1.122;exitDx=0;exitDy=0;exitPerimeter=0;" edge="1" parent="WIyWlLk6GJQsqaUBKTNV-1">
          <mxGeometry width="50" height="50" relative="1" as="geometry">
            <mxPoint x="1040" y="1859.9999999999998" as="sourcePoint" />
            <mxPoint x="1040" y="1960" as="targetPoint" />
          </mxGeometry>
        </mxCell>
        <mxCell id="VlcBlRw5gI0S2deszUiy-109" value="1" style="edgeLabel;html=1;align=center;verticalAlign=middle;resizable=0;points=[];" vertex="1" connectable="0" parent="VlcBlRw5gI0S2deszUiy-107">
          <mxGeometry x="0.0027" y="1" relative="1" as="geometry">
            <mxPoint x="-1" y="-30" as="offset" />
          </mxGeometry>
        </mxCell>
        <mxCell id="VlcBlRw5gI0S2deszUiy-110" value="" style="endArrow=none;html=1;rounded=0;" edge="1" parent="WIyWlLk6GJQsqaUBKTNV-1">
          <mxGeometry width="50" height="50" relative="1" as="geometry">
            <mxPoint x="1115" y="1660" as="sourcePoint" />
            <mxPoint x="1200" y="1660" as="targetPoint" />
          </mxGeometry>
        </mxCell>
        <mxCell id="VlcBlRw5gI0S2deszUiy-113" value="Nie" style="edgeLabel;html=1;align=center;verticalAlign=middle;resizable=0;points=[];" vertex="1" connectable="0" parent="VlcBlRw5gI0S2deszUiy-110">
          <mxGeometry x="-0.2553" y="1" relative="1" as="geometry">
            <mxPoint as="offset" />
          </mxGeometry>
        </mxCell>
        <mxCell id="VlcBlRw5gI0S2deszUiy-111" value="" style="endArrow=none;html=1;rounded=0;" edge="1" parent="WIyWlLk6GJQsqaUBKTNV-1">
          <mxGeometry width="50" height="50" relative="1" as="geometry">
            <mxPoint x="1200" y="1920" as="sourcePoint" />
            <mxPoint x="1200" y="1660" as="targetPoint" />
          </mxGeometry>
        </mxCell>
        <mxCell id="VlcBlRw5gI0S2deszUiy-112" value="" style="endArrow=classic;html=1;rounded=0;" edge="1" parent="WIyWlLk6GJQsqaUBKTNV-1">
          <mxGeometry width="50" height="50" relative="1" as="geometry">
            <mxPoint x="1200" y="1920" as="sourcePoint" />
            <mxPoint x="1040" y="1920" as="targetPoint" />
          </mxGeometry>
        </mxCell>
        <mxCell id="VlcBlRw5gI0S2deszUiy-114" value="START" style="swimlane;fontStyle=0;childLayout=stackLayout;horizontal=1;startSize=30;horizontalStack=0;resizeParent=1;resizeParentMax=0;resizeLast=0;collapsible=1;marginBottom=0;whiteSpace=wrap;html=1;" vertex="1" parent="WIyWlLk6GJQsqaUBKTNV-1">
          <mxGeometry x="970" y="1960" width="140" height="60" as="geometry" />
        </mxCell>
        <mxCell id="VlcBlRw5gI0S2deszUiy-116" value="" style="endArrow=none;html=1;rounded=0;" edge="1" parent="WIyWlLk6GJQsqaUBKTNV-1">
          <mxGeometry width="50" height="50" relative="1" as="geometry">
            <mxPoint x="1220" y="1399.72" as="sourcePoint" />
            <mxPoint x="1360" y="1400" as="targetPoint" />
          </mxGeometry>
        </mxCell>
        <mxCell id="VlcBlRw5gI0S2deszUiy-117" value="Nie" style="edgeLabel;html=1;align=center;verticalAlign=middle;resizable=0;points=[];" vertex="1" connectable="0" parent="VlcBlRw5gI0S2deszUiy-116">
          <mxGeometry x="0.3071" y="1" relative="1" as="geometry">
            <mxPoint x="-22" y="1" as="offset" />
          </mxGeometry>
        </mxCell>
        <mxCell id="VlcBlRw5gI0S2deszUiy-121" value="" style="endArrow=classic;html=1;rounded=0;exitX=0.5;exitY=1;exitDx=0;exitDy=0;entryX=0.5;entryY=0;entryDx=0;entryDy=0;" edge="1" parent="WIyWlLk6GJQsqaUBKTNV-1" source="nSXJ9mcBRlVtJKenyXMZ-48">
          <mxGeometry width="50" height="50" relative="1" as="geometry">
            <mxPoint x="610" y="300" as="sourcePoint" />
            <mxPoint x="570" y="260" as="targetPoint" />
          </mxGeometry>
        </mxCell>
        <mxCell id="VlcBlRw5gI0S2deszUiy-122" value="Tak" style="edgeLabel;html=1;align=center;verticalAlign=middle;resizable=0;points=[];" vertex="1" connectable="0" parent="VlcBlRw5gI0S2deszUiy-121">
          <mxGeometry x="-0.2984" relative="1" as="geometry">
            <mxPoint y="-15" as="offset" />
          </mxGeometry>
        </mxCell>
        <mxCell id="VlcBlRw5gI0S2deszUiy-123" value="STATE_9" style="swimlane;fontStyle=0;childLayout=stackLayout;horizontal=1;startSize=30;horizontalStack=0;resizeParent=1;resizeParentMax=0;resizeLast=0;collapsible=1;marginBottom=0;whiteSpace=wrap;html=1;" vertex="1" parent="WIyWlLk6GJQsqaUBKTNV-1">
          <mxGeometry x="500" y="260" width="140" height="120" as="geometry" />
        </mxCell>
        <mxCell id="VlcBlRw5gI0S2deszUiy-124" value="LEDY na zielono" style="text;strokeColor=none;fillColor=none;align=left;verticalAlign=middle;spacingLeft=4;spacingRight=4;overflow=hidden;points=[[0,0.5],[1,0.5]];portConstraint=eastwest;rotatable=0;whiteSpace=wrap;html=1;" vertex="1" parent="VlcBlRw5gI0S2deszUiy-123">
          <mxGeometry y="30" width="140" height="30" as="geometry" />
        </mxCell>
        <mxCell id="VlcBlRw5gI0S2deszUiy-125" value="Odblokowanie pudla" style="text;strokeColor=none;fillColor=none;align=left;verticalAlign=middle;spacingLeft=4;spacingRight=4;overflow=hidden;points=[[0,0.5],[1,0.5]];portConstraint=eastwest;rotatable=0;whiteSpace=wrap;html=1;" vertex="1" parent="VlcBlRw5gI0S2deszUiy-123">
          <mxGeometry y="60" width="140" height="30" as="geometry" />
        </mxCell>
        <mxCell id="VlcBlRw5gI0S2deszUiy-126" value="TIMER_2 set = 0" style="text;strokeColor=none;fillColor=none;align=left;verticalAlign=middle;spacingLeft=4;spacingRight=4;overflow=hidden;points=[[0,0.5],[1,0.5]];portConstraint=eastwest;rotatable=0;whiteSpace=wrap;html=1;" vertex="1" parent="VlcBlRw5gI0S2deszUiy-123">
          <mxGeometry y="90" width="140" height="30" as="geometry" />
        </mxCell>
        <mxCell id="VlcBlRw5gI0S2deszUiy-127" value="" style="endArrow=classic;html=1;rounded=0;exitX=0.5;exitY=1;exitDx=0;exitDy=0;entryX=0.5;entryY=0;entryDx=0;entryDy=0;" edge="1" parent="WIyWlLk6GJQsqaUBKTNV-1">
          <mxGeometry width="50" height="50" relative="1" as="geometry">
            <mxPoint x="569.79" y="380" as="sourcePoint" />
            <mxPoint x="569.79" y="450" as="targetPoint" />
          </mxGeometry>
        </mxCell>
        <mxCell id="VlcBlRw5gI0S2deszUiy-128" value="TIMER_2 = 3 s" style="edgeLabel;html=1;align=center;verticalAlign=middle;resizable=0;points=[];" vertex="1" connectable="0" parent="VlcBlRw5gI0S2deszUiy-127">
          <mxGeometry x="-0.2984" relative="1" as="geometry">
            <mxPoint as="offset" />
          </mxGeometry>
        </mxCell>
        <mxCell id="VlcBlRw5gI0S2deszUiy-129" value="STATE_10" style="swimlane;fontStyle=0;childLayout=stackLayout;horizontal=1;startSize=30;horizontalStack=0;resizeParent=1;resizeParentMax=0;resizeLast=0;collapsible=1;marginBottom=0;whiteSpace=wrap;html=1;" vertex="1" parent="WIyWlLk6GJQsqaUBKTNV-1">
          <mxGeometry x="500" y="450" width="140" height="60" as="geometry" />
        </mxCell>
        <mxCell id="VlcBlRw5gI0S2deszUiy-130" value="Display ZEGAR 0" style="text;strokeColor=none;fillColor=none;align=left;verticalAlign=middle;spacingLeft=4;spacingRight=4;overflow=hidden;points=[[0,0.5],[1,0.5]];portConstraint=eastwest;rotatable=0;whiteSpace=wrap;html=1;" vertex="1" parent="VlcBlRw5gI0S2deszUiy-129">
          <mxGeometry y="30" width="140" height="30" as="geometry" />
        </mxCell>
        <mxCell id="VlcBlRw5gI0S2deszUiy-133" value="" style="endArrow=none;html=1;rounded=0;" edge="1" parent="WIyWlLk6GJQsqaUBKTNV-1">
          <mxGeometry width="50" height="50" relative="1" as="geometry">
            <mxPoint x="680" y="760" as="sourcePoint" />
            <mxPoint x="680" y="230" as="targetPoint" />
          </mxGeometry>
        </mxCell>
        <mxCell id="VlcBlRw5gI0S2deszUiy-134" value="" style="endArrow=classic;html=1;rounded=0;" edge="1" parent="WIyWlLk6GJQsqaUBKTNV-1">
          <mxGeometry width="50" height="50" relative="1" as="geometry">
            <mxPoint x="680" y="230" as="sourcePoint" />
            <mxPoint x="570" y="230" as="targetPoint" />
          </mxGeometry>
        </mxCell>
        <mxCell id="VlcBlRw5gI0S2deszUiy-135" value="" style="endArrow=none;html=1;rounded=0;" edge="1" parent="WIyWlLk6GJQsqaUBKTNV-1">
          <mxGeometry width="50" height="50" relative="1" as="geometry">
            <mxPoint x="570" y="850" as="sourcePoint" />
            <mxPoint x="570" y="510" as="targetPoint" />
          </mxGeometry>
        </mxCell>
        <mxCell id="VlcBlRw5gI0S2deszUiy-137" value="1" style="edgeLabel;html=1;align=center;verticalAlign=middle;resizable=0;points=[];" vertex="1" connectable="0" parent="VlcBlRw5gI0S2deszUiy-135">
          <mxGeometry x="0.7938" y="2" relative="1" as="geometry">
            <mxPoint as="offset" />
          </mxGeometry>
        </mxCell>
        <mxCell id="VlcBlRw5gI0S2deszUiy-136" value="" style="endArrow=classic;html=1;rounded=0;" edge="1" parent="WIyWlLk6GJQsqaUBKTNV-1">
          <mxGeometry width="50" height="50" relative="1" as="geometry">
            <mxPoint x="570" y="850" as="sourcePoint" />
            <mxPoint x="970" y="850" as="targetPoint" />
          </mxGeometry>
        </mxCell>
        <mxCell id="VlcBlRw5gI0S2deszUiy-138" value="STATE_11" style="swimlane;fontStyle=0;childLayout=stackLayout;horizontal=1;startSize=30;horizontalStack=0;resizeParent=1;resizeParentMax=0;resizeLast=0;collapsible=1;marginBottom=0;whiteSpace=wrap;html=1;" vertex="1" parent="WIyWlLk6GJQsqaUBKTNV-1">
          <mxGeometry x="1290" y="1460" width="140" height="90" as="geometry" />
        </mxCell>
        <mxCell id="VlcBlRw5gI0S2deszUiy-139" value="LEDY na czerwono" style="text;strokeColor=none;fillColor=none;align=left;verticalAlign=middle;spacingLeft=4;spacingRight=4;overflow=hidden;points=[[0,0.5],[1,0.5]];portConstraint=eastwest;rotatable=0;whiteSpace=wrap;html=1;" vertex="1" parent="VlcBlRw5gI0S2deszUiy-138">
          <mxGeometry y="30" width="140" height="30" as="geometry" />
        </mxCell>
        <mxCell id="VlcBlRw5gI0S2deszUiy-140" value="Blokowanie pudla" style="text;strokeColor=none;fillColor=none;align=left;verticalAlign=middle;spacingLeft=4;spacingRight=4;overflow=hidden;points=[[0,0.5],[1,0.5]];portConstraint=eastwest;rotatable=0;whiteSpace=wrap;html=1;" vertex="1" parent="VlcBlRw5gI0S2deszUiy-138">
          <mxGeometry y="60" width="140" height="30" as="geometry" />
        </mxCell>
        <mxCell id="VlcBlRw5gI0S2deszUiy-142" value="" style="endArrow=classic;html=1;rounded=0;entryX=0.5;entryY=0;entryDx=0;entryDy=0;" edge="1" parent="WIyWlLk6GJQsqaUBKTNV-1" target="VlcBlRw5gI0S2deszUiy-138">
          <mxGeometry width="50" height="50" relative="1" as="geometry">
            <mxPoint x="1360" y="1400" as="sourcePoint" />
            <mxPoint x="1410" y="1350" as="targetPoint" />
          </mxGeometry>
        </mxCell>
        <mxCell id="VlcBlRw5gI0S2deszUiy-144" value="Przycisk" style="rhombus;whiteSpace=wrap;html=1;shadow=0;fontFamily=Helvetica;fontSize=12;align=center;strokeWidth=1;spacing=6;spacingTop=-4;" vertex="1" parent="WIyWlLk6GJQsqaUBKTNV-1">
          <mxGeometry x="1310" y="1610" width="100" height="80" as="geometry" />
        </mxCell>
        <mxCell id="VlcBlRw5gI0S2deszUiy-145" value="" style="endArrow=classic;html=1;rounded=0;exitX=0.507;exitY=1.104;exitDx=0;exitDy=0;exitPerimeter=0;entryX=0.5;entryY=0;entryDx=0;entryDy=0;" edge="1" parent="WIyWlLk6GJQsqaUBKTNV-1">
          <mxGeometry width="50" height="50" relative="1" as="geometry">
            <mxPoint x="1360" y="1550" as="sourcePoint" />
            <mxPoint x="1360.08" y="1610" as="targetPoint" />
          </mxGeometry>
        </mxCell>
        <mxCell id="VlcBlRw5gI0S2deszUiy-146" value="1" style="edgeLabel;html=1;align=center;verticalAlign=middle;resizable=0;points=[];" vertex="1" connectable="0" parent="VlcBlRw5gI0S2deszUiy-145">
          <mxGeometry x="-0.137" relative="1" as="geometry">
            <mxPoint as="offset" />
          </mxGeometry>
        </mxCell>
        <mxCell id="VlcBlRw5gI0S2deszUiy-147" value="" style="endArrow=classic;html=1;rounded=0;exitX=0.5;exitY=1;exitDx=0;exitDy=0;" edge="1" parent="WIyWlLk6GJQsqaUBKTNV-1">
          <mxGeometry width="50" height="50" relative="1" as="geometry">
            <mxPoint x="1359.77" y="1690" as="sourcePoint" />
            <mxPoint x="1359.77" y="1770" as="targetPoint" />
          </mxGeometry>
        </mxCell>
        <mxCell id="VlcBlRw5gI0S2deszUiy-148" value="Tak" style="edgeLabel;html=1;align=center;verticalAlign=middle;resizable=0;points=[];" vertex="1" connectable="0" parent="VlcBlRw5gI0S2deszUiy-147">
          <mxGeometry x="-0.1926" y="2" relative="1" as="geometry">
            <mxPoint as="offset" />
          </mxGeometry>
        </mxCell>
        <mxCell id="VlcBlRw5gI0S2deszUiy-149" value="STATE_12" style="swimlane;fontStyle=0;childLayout=stackLayout;horizontal=1;startSize=30;horizontalStack=0;resizeParent=1;resizeParentMax=0;resizeLast=0;collapsible=1;marginBottom=0;whiteSpace=wrap;html=1;" vertex="1" parent="WIyWlLk6GJQsqaUBKTNV-1">
          <mxGeometry x="1290" y="1770" width="140" height="60" as="geometry" />
        </mxCell>
        <mxCell id="VlcBlRw5gI0S2deszUiy-150" value="LEDY na zielono" style="text;strokeColor=none;fillColor=none;align=left;verticalAlign=middle;spacingLeft=4;spacingRight=4;overflow=hidden;points=[[0,0.5],[1,0.5]];portConstraint=eastwest;rotatable=0;whiteSpace=wrap;html=1;" vertex="1" parent="VlcBlRw5gI0S2deszUiy-149">
          <mxGeometry y="30" width="140" height="30" as="geometry" />
        </mxCell>
        <mxCell id="VlcBlRw5gI0S2deszUiy-153" value="Licznik razy &amp;lt; 2&lt;br&gt;AND&lt;br&gt;Last komunikat &amp;gt; 60 minut temu" style="rhombus;whiteSpace=wrap;html=1;shadow=0;fontFamily=Helvetica;fontSize=12;align=center;strokeWidth=1;spacing=6;spacingTop=-4;" vertex="1" parent="WIyWlLk6GJQsqaUBKTNV-1">
          <mxGeometry x="1285" y="1890" width="150" height="120" as="geometry" />
        </mxCell>
        <mxCell id="VlcBlRw5gI0S2deszUiy-154" value="" style="endArrow=classic;html=1;rounded=0;exitX=0.5;exitY=1.024;exitDx=0;exitDy=0;exitPerimeter=0;" edge="1" parent="WIyWlLk6GJQsqaUBKTNV-1" source="VlcBlRw5gI0S2deszUiy-150">
          <mxGeometry width="50" height="50" relative="1" as="geometry">
            <mxPoint x="1370" y="1850" as="sourcePoint" />
            <mxPoint x="1360" y="1890" as="targetPoint" />
          </mxGeometry>
        </mxCell>
        <mxCell id="VlcBlRw5gI0S2deszUiy-155" value="1" style="edgeLabel;html=1;align=center;verticalAlign=middle;resizable=0;points=[];" vertex="1" connectable="0" parent="VlcBlRw5gI0S2deszUiy-154">
          <mxGeometry x="-0.137" relative="1" as="geometry">
            <mxPoint as="offset" />
          </mxGeometry>
        </mxCell>
        <mxCell id="VlcBlRw5gI0S2deszUiy-156" value="" style="endArrow=classic;html=1;rounded=0;exitX=0.5;exitY=1;exitDx=0;exitDy=0;" edge="1" parent="WIyWlLk6GJQsqaUBKTNV-1">
          <mxGeometry width="50" height="50" relative="1" as="geometry">
            <mxPoint x="1359.77" y="2010" as="sourcePoint" />
            <mxPoint x="1359.77" y="2090" as="targetPoint" />
          </mxGeometry>
        </mxCell>
        <mxCell id="VlcBlRw5gI0S2deszUiy-157" value="Tak" style="edgeLabel;html=1;align=center;verticalAlign=middle;resizable=0;points=[];" vertex="1" connectable="0" parent="VlcBlRw5gI0S2deszUiy-156">
          <mxGeometry x="-0.1926" y="2" relative="1" as="geometry">
            <mxPoint as="offset" />
          </mxGeometry>
        </mxCell>
        <mxCell id="VlcBlRw5gI0S2deszUiy-158" value="STATE_13" style="swimlane;fontStyle=0;childLayout=stackLayout;horizontal=1;startSize=30;horizontalStack=0;resizeParent=1;resizeParentMax=0;resizeLast=0;collapsible=1;marginBottom=0;whiteSpace=wrap;html=1;" vertex="1" parent="WIyWlLk6GJQsqaUBKTNV-1">
          <mxGeometry x="1290" y="2090" width="140" height="60" as="geometry" />
        </mxCell>
        <mxCell id="VlcBlRw5gI0S2deszUiy-159" value="Komunikat: &quot;Naciśnij 2 razy, aby anulować&quot;" style="text;strokeColor=none;fillColor=none;align=left;verticalAlign=middle;spacingLeft=4;spacingRight=4;overflow=hidden;points=[[0,0.5],[1,0.5]];portConstraint=eastwest;rotatable=0;whiteSpace=wrap;html=1;" vertex="1" parent="VlcBlRw5gI0S2deszUiy-158">
          <mxGeometry y="30" width="140" height="30" as="geometry" />
        </mxCell>
        <mxCell id="VlcBlRw5gI0S2deszUiy-160" value="" style="endArrow=classic;html=1;rounded=0;exitX=0.507;exitY=1.104;exitDx=0;exitDy=0;exitPerimeter=0;entryX=0.5;entryY=0;entryDx=0;entryDy=0;" edge="1" parent="WIyWlLk6GJQsqaUBKTNV-1">
          <mxGeometry width="50" height="50" relative="1" as="geometry">
            <mxPoint x="1359.77" y="2150" as="sourcePoint" />
            <mxPoint x="1359.85" y="2210" as="targetPoint" />
          </mxGeometry>
        </mxCell>
        <mxCell id="VlcBlRw5gI0S2deszUiy-161" value="1" style="edgeLabel;html=1;align=center;verticalAlign=middle;resizable=0;points=[];" vertex="1" connectable="0" parent="VlcBlRw5gI0S2deszUiy-160">
          <mxGeometry x="-0.137" relative="1" as="geometry">
            <mxPoint y="-16" as="offset" />
          </mxGeometry>
        </mxCell>
        <mxCell id="VlcBlRw5gI0S2deszUiy-162" value="STATE_14" style="swimlane;fontStyle=0;childLayout=stackLayout;horizontal=1;startSize=30;horizontalStack=0;resizeParent=1;resizeParentMax=0;resizeLast=0;collapsible=1;marginBottom=0;whiteSpace=wrap;html=1;" vertex="1" parent="WIyWlLk6GJQsqaUBKTNV-1">
          <mxGeometry x="1290" y="2210" width="140" height="60" as="geometry" />
        </mxCell>
        <mxCell id="VlcBlRw5gI0S2deszUiy-163" value="TIMER_3 set = 7" style="text;strokeColor=none;fillColor=none;align=left;verticalAlign=middle;spacingLeft=4;spacingRight=4;overflow=hidden;points=[[0,0.5],[1,0.5]];portConstraint=eastwest;rotatable=0;whiteSpace=wrap;html=1;" vertex="1" parent="VlcBlRw5gI0S2deszUiy-162">
          <mxGeometry y="30" width="140" height="30" as="geometry" />
        </mxCell>
        <mxCell id="VlcBlRw5gI0S2deszUiy-166" value="" style="endArrow=none;html=1;rounded=0;" edge="1" parent="WIyWlLk6GJQsqaUBKTNV-1">
          <mxGeometry width="50" height="50" relative="1" as="geometry">
            <mxPoint x="1435" y="1950" as="sourcePoint" />
            <mxPoint x="1500" y="1950" as="targetPoint" />
          </mxGeometry>
        </mxCell>
        <mxCell id="VlcBlRw5gI0S2deszUiy-169" value="Nie" style="edgeLabel;html=1;align=center;verticalAlign=middle;resizable=0;points=[];" vertex="1" connectable="0" parent="VlcBlRw5gI0S2deszUiy-166">
          <mxGeometry x="-0.361" y="2" relative="1" as="geometry">
            <mxPoint as="offset" />
          </mxGeometry>
        </mxCell>
        <mxCell id="VlcBlRw5gI0S2deszUiy-167" value="" style="endArrow=none;html=1;rounded=0;" edge="1" parent="WIyWlLk6GJQsqaUBKTNV-1">
          <mxGeometry width="50" height="50" relative="1" as="geometry">
            <mxPoint x="1500" y="1950" as="sourcePoint" />
            <mxPoint x="1500" y="2180" as="targetPoint" />
          </mxGeometry>
        </mxCell>
        <mxCell id="VlcBlRw5gI0S2deszUiy-168" value="" style="endArrow=classic;html=1;rounded=0;" edge="1" parent="WIyWlLk6GJQsqaUBKTNV-1">
          <mxGeometry width="50" height="50" relative="1" as="geometry">
            <mxPoint x="1500" y="2180" as="sourcePoint" />
            <mxPoint x="1360" y="2180" as="targetPoint" />
          </mxGeometry>
        </mxCell>
        <mxCell id="VlcBlRw5gI0S2deszUiy-170" value="" style="endArrow=classic;html=1;rounded=0;exitX=0.507;exitY=1.104;exitDx=0;exitDy=0;exitPerimeter=0;entryX=0.5;entryY=0;entryDx=0;entryDy=0;" edge="1" parent="WIyWlLk6GJQsqaUBKTNV-1">
          <mxGeometry width="50" height="50" relative="1" as="geometry">
            <mxPoint x="1359.81" y="2270" as="sourcePoint" />
            <mxPoint x="1359.8899999999999" y="2330" as="targetPoint" />
          </mxGeometry>
        </mxCell>
        <mxCell id="VlcBlRw5gI0S2deszUiy-171" value="1" style="edgeLabel;html=1;align=center;verticalAlign=middle;resizable=0;points=[];" vertex="1" connectable="0" parent="VlcBlRw5gI0S2deszUiy-170">
          <mxGeometry x="-0.137" relative="1" as="geometry">
            <mxPoint y="-16" as="offset" />
          </mxGeometry>
        </mxCell>
        <mxCell id="VlcBlRw5gI0S2deszUiy-174" value="Przycisk 2 razy wcisniety&lt;br&gt;AND&lt;br&gt;TIMER_3 &amp;gt; 0" style="rhombus;whiteSpace=wrap;html=1;shadow=0;fontFamily=Helvetica;fontSize=12;align=center;strokeWidth=1;spacing=6;spacingTop=-4;" vertex="1" parent="WIyWlLk6GJQsqaUBKTNV-1">
          <mxGeometry x="1285" y="2330" width="150" height="120" as="geometry" />
        </mxCell>
        <mxCell id="VlcBlRw5gI0S2deszUiy-175" value="" style="endArrow=classic;html=1;rounded=0;exitX=0.5;exitY=1;exitDx=0;exitDy=0;" edge="1" parent="WIyWlLk6GJQsqaUBKTNV-1" source="VlcBlRw5gI0S2deszUiy-174">
          <mxGeometry width="50" height="50" relative="1" as="geometry">
            <mxPoint x="1385" y="2500" as="sourcePoint" />
            <mxPoint x="1360" y="2520" as="targetPoint" />
          </mxGeometry>
        </mxCell>
        <mxCell id="VlcBlRw5gI0S2deszUiy-176" value="Tak" style="edgeLabel;html=1;align=center;verticalAlign=middle;resizable=0;points=[];" vertex="1" connectable="0" parent="VlcBlRw5gI0S2deszUiy-175">
          <mxGeometry x="-0.2944" y="-1" relative="1" as="geometry">
            <mxPoint as="offset" />
          </mxGeometry>
        </mxCell>
        <mxCell id="VlcBlRw5gI0S2deszUiy-177" value="STATE_15" style="swimlane;fontStyle=0;childLayout=stackLayout;horizontal=1;startSize=30;horizontalStack=0;resizeParent=1;resizeParentMax=0;resizeLast=0;collapsible=1;marginBottom=0;whiteSpace=wrap;html=1;" vertex="1" parent="WIyWlLk6GJQsqaUBKTNV-1">
          <mxGeometry x="1290" y="2520" width="140" height="60" as="geometry" />
        </mxCell>
        <mxCell id="VlcBlRw5gI0S2deszUiy-178" value="Anulowanie odliczania" style="text;strokeColor=none;fillColor=none;align=left;verticalAlign=middle;spacingLeft=4;spacingRight=4;overflow=hidden;points=[[0,0.5],[1,0.5]];portConstraint=eastwest;rotatable=0;whiteSpace=wrap;html=1;" vertex="1" parent="VlcBlRw5gI0S2deszUiy-177">
          <mxGeometry y="30" width="140" height="30" as="geometry" />
        </mxCell>
        <mxCell id="VlcBlRw5gI0S2deszUiy-181" value="" style="endArrow=none;html=1;rounded=0;" edge="1" parent="WIyWlLk6GJQsqaUBKTNV-1">
          <mxGeometry width="50" height="50" relative="1" as="geometry">
            <mxPoint x="1360" y="2640" as="sourcePoint" />
            <mxPoint x="1360" y="2580" as="targetPoint" />
          </mxGeometry>
        </mxCell>
        <mxCell id="VlcBlRw5gI0S2deszUiy-185" value="1" style="edgeLabel;html=1;align=center;verticalAlign=middle;resizable=0;points=[];" vertex="1" connectable="0" parent="VlcBlRw5gI0S2deszUiy-181">
          <mxGeometry x="0.0056" y="-1" relative="1" as="geometry">
            <mxPoint as="offset" />
          </mxGeometry>
        </mxCell>
        <mxCell id="VlcBlRw5gI0S2deszUiy-182" value="" style="endArrow=none;html=1;rounded=0;" edge="1" parent="WIyWlLk6GJQsqaUBKTNV-1">
          <mxGeometry width="50" height="50" relative="1" as="geometry">
            <mxPoint x="1360" y="2640" as="sourcePoint" />
            <mxPoint x="1520" y="2640" as="targetPoint" />
          </mxGeometry>
        </mxCell>
        <mxCell id="VlcBlRw5gI0S2deszUiy-183" value="" style="endArrow=none;html=1;rounded=0;" edge="1" parent="WIyWlLk6GJQsqaUBKTNV-1">
          <mxGeometry width="50" height="50" relative="1" as="geometry">
            <mxPoint x="1520" y="2640" as="sourcePoint" />
            <mxPoint x="1520" y="860" as="targetPoint" />
          </mxGeometry>
        </mxCell>
        <mxCell id="VlcBlRw5gI0S2deszUiy-184" value="" style="endArrow=classic;html=1;rounded=0;" edge="1" parent="WIyWlLk6GJQsqaUBKTNV-1">
          <mxGeometry width="50" height="50" relative="1" as="geometry">
            <mxPoint x="1520" y="860" as="sourcePoint" />
            <mxPoint x="970" y="860" as="targetPoint" />
          </mxGeometry>
        </mxCell>
        <mxCell id="VlcBlRw5gI0S2deszUiy-186" value="" style="endArrow=none;html=1;rounded=0;" edge="1" parent="WIyWlLk6GJQsqaUBKTNV-1">
          <mxGeometry width="50" height="50" relative="1" as="geometry">
            <mxPoint x="1080" y="2390" as="sourcePoint" />
            <mxPoint x="1285" y="2390" as="targetPoint" />
          </mxGeometry>
        </mxCell>
        <mxCell id="VlcBlRw5gI0S2deszUiy-187" value="Nie" style="edgeLabel;html=1;align=center;verticalAlign=middle;resizable=0;points=[];" vertex="1" connectable="0" parent="VlcBlRw5gI0S2deszUiy-186">
          <mxGeometry x="0.313" y="1" relative="1" as="geometry">
            <mxPoint as="offset" />
          </mxGeometry>
        </mxCell>
        <mxCell id="VlcBlRw5gI0S2deszUiy-188" value="" style="endArrow=classic;html=1;rounded=0;" edge="1" parent="WIyWlLk6GJQsqaUBKTNV-1">
          <mxGeometry width="50" height="50" relative="1" as="geometry">
            <mxPoint x="1080" y="2390" as="sourcePoint" />
            <mxPoint x="1080" y="2520" as="targetPoint" />
          </mxGeometry>
        </mxCell>
        <mxCell id="VlcBlRw5gI0S2deszUiy-189" value="STATE_16" style="swimlane;fontStyle=0;childLayout=stackLayout;horizontal=1;startSize=30;horizontalStack=0;resizeParent=1;resizeParentMax=0;resizeLast=0;collapsible=1;marginBottom=0;whiteSpace=wrap;html=1;" vertex="1" parent="WIyWlLk6GJQsqaUBKTNV-1">
          <mxGeometry x="1010" y="2520" width="140" height="90" as="geometry" />
        </mxCell>
        <mxCell id="VlcBlRw5gI0S2deszUiy-190" value="LEDY na czerwono" style="text;strokeColor=none;fillColor=none;align=left;verticalAlign=middle;spacingLeft=4;spacingRight=4;overflow=hidden;points=[[0,0.5],[1,0.5]];portConstraint=eastwest;rotatable=0;whiteSpace=wrap;html=1;" vertex="1" parent="VlcBlRw5gI0S2deszUiy-189">
          <mxGeometry y="30" width="140" height="30" as="geometry" />
        </mxCell>
        <mxCell id="VlcBlRw5gI0S2deszUiy-191" value="Urządzenie zablokowane" style="text;strokeColor=none;fillColor=none;align=left;verticalAlign=middle;spacingLeft=4;spacingRight=4;overflow=hidden;points=[[0,0.5],[1,0.5]];portConstraint=eastwest;rotatable=0;whiteSpace=wrap;html=1;" vertex="1" parent="VlcBlRw5gI0S2deszUiy-189">
          <mxGeometry y="60" width="140" height="30" as="geometry" />
        </mxCell>
        <mxCell id="VlcBlRw5gI0S2deszUiy-195" value="" style="endArrow=classic;html=1;rounded=0;" edge="1" parent="VlcBlRw5gI0S2deszUiy-189">
          <mxGeometry width="50" height="50" relative="1" as="geometry">
            <mxPoint x="70" y="90" as="sourcePoint" />
            <mxPoint x="70" y="160" as="targetPoint" />
          </mxGeometry>
        </mxCell>
        <mxCell id="VlcBlRw5gI0S2deszUiy-196" value="1" style="edgeLabel;html=1;align=center;verticalAlign=middle;resizable=0;points=[];" vertex="1" connectable="0" parent="VlcBlRw5gI0S2deszUiy-195">
          <mxGeometry x="-0.2571" relative="1" as="geometry">
            <mxPoint as="offset" />
          </mxGeometry>
        </mxCell>
        <mxCell id="VlcBlRw5gI0S2deszUiy-197" value="Niski stan baterii" style="rhombus;whiteSpace=wrap;html=1;shadow=0;fontFamily=Helvetica;fontSize=12;align=center;strokeWidth=1;spacing=6;spacingTop=-4;" vertex="1" parent="WIyWlLk6GJQsqaUBKTNV-1">
          <mxGeometry x="1030" y="2680" width="100" height="80" as="geometry" />
        </mxCell>
        <mxCell id="VlcBlRw5gI0S2deszUiy-198" value="" style="endArrow=classic;html=1;rounded=0;" edge="1" parent="WIyWlLk6GJQsqaUBKTNV-1">
          <mxGeometry width="50" height="50" relative="1" as="geometry">
            <mxPoint x="1080" y="2760" as="sourcePoint" />
            <mxPoint x="1080" y="2820" as="targetPoint" />
          </mxGeometry>
        </mxCell>
        <mxCell id="VlcBlRw5gI0S2deszUiy-199" value="Tak" style="edgeLabel;html=1;align=center;verticalAlign=middle;resizable=0;points=[];" vertex="1" connectable="0" parent="VlcBlRw5gI0S2deszUiy-198">
          <mxGeometry x="-0.4649" relative="1" as="geometry">
            <mxPoint as="offset" />
          </mxGeometry>
        </mxCell>
        <mxCell id="VlcBlRw5gI0S2deszUiy-201" value="STATE_17" style="swimlane;fontStyle=0;childLayout=stackLayout;horizontal=1;startSize=30;horizontalStack=0;resizeParent=1;resizeParentMax=0;resizeLast=0;collapsible=1;marginBottom=0;whiteSpace=wrap;html=1;" vertex="1" parent="WIyWlLk6GJQsqaUBKTNV-1">
          <mxGeometry x="1010" y="2820" width="140" height="60" as="geometry" />
        </mxCell>
        <mxCell id="VlcBlRw5gI0S2deszUiy-202" value="Powiadomienie o baterii" style="text;strokeColor=none;fillColor=none;align=left;verticalAlign=middle;spacingLeft=4;spacingRight=4;overflow=hidden;points=[[0,0.5],[1,0.5]];portConstraint=eastwest;rotatable=0;whiteSpace=wrap;html=1;" vertex="1" parent="VlcBlRw5gI0S2deszUiy-201">
          <mxGeometry y="30" width="140" height="30" as="geometry" />
        </mxCell>
        <mxCell id="VlcBlRw5gI0S2deszUiy-204" value="" style="endArrow=classic;html=1;rounded=0;" edge="1" parent="WIyWlLk6GJQsqaUBKTNV-1">
          <mxGeometry width="50" height="50" relative="1" as="geometry">
            <mxPoint x="1079.82" y="2880" as="sourcePoint" />
            <mxPoint x="1079.82" y="2950" as="targetPoint" />
          </mxGeometry>
        </mxCell>
        <mxCell id="VlcBlRw5gI0S2deszUiy-205" value="1" style="edgeLabel;html=1;align=center;verticalAlign=middle;resizable=0;points=[];" vertex="1" connectable="0" parent="VlcBlRw5gI0S2deszUiy-204">
          <mxGeometry x="-0.2571" relative="1" as="geometry">
            <mxPoint as="offset" />
          </mxGeometry>
        </mxCell>
        <mxCell id="VlcBlRw5gI0S2deszUiy-206" value="STATE_18" style="swimlane;fontStyle=0;childLayout=stackLayout;horizontal=1;startSize=30;horizontalStack=0;resizeParent=1;resizeParentMax=0;resizeLast=0;collapsible=1;marginBottom=0;whiteSpace=wrap;html=1;" vertex="1" parent="WIyWlLk6GJQsqaUBKTNV-1">
          <mxGeometry x="1010" y="2950" width="140" height="60" as="geometry" />
        </mxCell>
        <mxCell id="VlcBlRw5gI0S2deszUiy-207" value="Tekst C" style="text;strokeColor=none;fillColor=none;align=left;verticalAlign=middle;spacingLeft=4;spacingRight=4;overflow=hidden;points=[[0,0.5],[1,0.5]];portConstraint=eastwest;rotatable=0;whiteSpace=wrap;html=1;" vertex="1" parent="VlcBlRw5gI0S2deszUiy-206">
          <mxGeometry y="30" width="140" height="30" as="geometry" />
        </mxCell>
        <mxCell id="VlcBlRw5gI0S2deszUiy-212" value="" style="endArrow=classic;html=1;rounded=0;" edge="1" parent="VlcBlRw5gI0S2deszUiy-206">
          <mxGeometry width="50" height="50" relative="1" as="geometry">
            <mxPoint x="70" y="60" as="sourcePoint" />
            <mxPoint x="70" y="130" as="targetPoint" />
          </mxGeometry>
        </mxCell>
        <mxCell id="VlcBlRw5gI0S2deszUiy-208" value="" style="endArrow=none;html=1;rounded=0;" edge="1" parent="WIyWlLk6GJQsqaUBKTNV-1">
          <mxGeometry width="50" height="50" relative="1" as="geometry">
            <mxPoint x="1130" y="2720" as="sourcePoint" />
            <mxPoint x="1240" y="2720" as="targetPoint" />
          </mxGeometry>
        </mxCell>
        <mxCell id="VlcBlRw5gI0S2deszUiy-211" value="Nie" style="edgeLabel;html=1;align=center;verticalAlign=middle;resizable=0;points=[];" vertex="1" connectable="0" parent="VlcBlRw5gI0S2deszUiy-208">
          <mxGeometry x="0.4825" relative="1" as="geometry">
            <mxPoint as="offset" />
          </mxGeometry>
        </mxCell>
        <mxCell id="VlcBlRw5gI0S2deszUiy-209" value="" style="endArrow=none;html=1;rounded=0;" edge="1" parent="WIyWlLk6GJQsqaUBKTNV-1">
          <mxGeometry width="50" height="50" relative="1" as="geometry">
            <mxPoint x="1240" y="2920" as="sourcePoint" />
            <mxPoint x="1240" y="2720" as="targetPoint" />
          </mxGeometry>
        </mxCell>
        <mxCell id="VlcBlRw5gI0S2deszUiy-210" value="" style="endArrow=classic;html=1;rounded=0;" edge="1" parent="WIyWlLk6GJQsqaUBKTNV-1">
          <mxGeometry width="50" height="50" relative="1" as="geometry">
            <mxPoint x="1241" y="2920" as="sourcePoint" />
            <mxPoint x="1080" y="2920" as="targetPoint" />
          </mxGeometry>
        </mxCell>
        <mxCell id="VlcBlRw5gI0S2deszUiy-213" value="START" style="swimlane;fontStyle=0;childLayout=stackLayout;horizontal=1;startSize=30;horizontalStack=0;resizeParent=1;resizeParentMax=0;resizeLast=0;collapsible=1;marginBottom=0;whiteSpace=wrap;html=1;" vertex="1" parent="WIyWlLk6GJQsqaUBKTNV-1">
          <mxGeometry x="1010" y="3080" width="140" height="60" as="geometry" />
        </mxCell>
      </root>
    </mxGraphModel>
  </diagram>
</mxfile>
